HIERARCHY
ROOT joint_Root
{
	OFFSET 0.0 0.0 0.0
	CHANNELS 6 Xposition Yposition Zposition Zrotation Xrotation Yrotation 
	JOINT Hips
	{
		OFFSET 4.5925 91.4895 -427.239
		CHANNELS 6 Xposition Yposition Zposition Zrotation Xrotation Yrotation 
		JOINT Spine
		{
			OFFSET 15.7357 0.0 0.0
			CHANNELS 6 Xposition Yposition Zposition Zrotation Xrotation Yrotation 
			JOINT Chest
			{
				OFFSET 8.98455 -0.406207 0.0
				CHANNELS 6 Xposition Yposition Zposition Zrotation Xrotation Yrotation 
				JOINT Neck
				{
					OFFSET 16.3773 0.0 0.0
					CHANNELS 6 Xposition Yposition Zposition Zrotation Xrotation Yrotation 
					JOINT Head
					{
						OFFSET 6.45672 0.0 0.0
						CHANNELS 6 Xposition Yposition Zposition Zrotation Xrotation Yrotation 
						End Site
						{
							OFFSET 0.0 0.0 0.0
						}
					}
				}
				JOINT Shoulder_L
				{
					OFFSET 12.9942 -0.242716 4.98039
					CHANNELS 6 Xposition Yposition Zposition Zrotation Xrotation Yrotation 
					JOINT UpperArm_L
					{
						OFFSET 5.34809 0.0 0.0
						CHANNELS 6 Xposition Yposition Zposition Zrotation Xrotation Yrotation 
						JOINT LowerArm_L
						{
							OFFSET 24.3286 1.87007e-05 0.0
							CHANNELS 6 Xposition Yposition Zposition Zrotation Xrotation Yrotation 
							JOINT Hand_L
							{
								OFFSET 22.2916 0.0 0.0
								CHANNELS 6 Xposition Yposition Zposition Zrotation Xrotation Yrotation 
								End Site
								{
									OFFSET 0.0 0.0 0.0
								}
							}
						}
					}
				}
				JOINT Shoulder_R
				{
					OFFSET 12.9945 -0.242716 -4.98039
					CHANNELS 6 Xposition Yposition Zposition Zrotation Xrotation Yrotation 
					JOINT UpperArm_R
					{
						OFFSET -5.34813 0.0 0.0
						CHANNELS 6 Xposition Yposition Zposition Zrotation Xrotation Yrotation 
						JOINT LowerArm_R
						{
							OFFSET -24.3289 0.000322201 0.0
							CHANNELS 6 Xposition Yposition Zposition Zrotation Xrotation Yrotation 
							JOINT Hand_R
							{
								OFFSET -22.2915 -0.000108084 0.0
								CHANNELS 6 Xposition Yposition Zposition Zrotation Xrotation Yrotation 
								End Site
								{
									OFFSET 0.0 0.0 0.0
								}
							}
						}
					}
				}
			}
		}
		JOINT UpperLeg_L
		{
			OFFSET -2.19248 -6.46944 0.0
			CHANNELS 6 Xposition Yposition Zposition Zrotation Xrotation Yrotation 
			JOINT LowerLeg_L
			{
				OFFSET 39.0811 0.0 -1.23785e-05
				CHANNELS 6 Xposition Yposition Zposition Zrotation Xrotation Yrotation 
				JOINT Foot_L
				{
					OFFSET 40.9854 0.0 -1.26872e-05
					CHANNELS 6 Xposition Yposition Zposition Zrotation Xrotation Yrotation 
					JOINT Toes_L
					{
						OFFSET 11.7543 0.0 0.0
						CHANNELS 6 Xposition Yposition Zposition Zrotation Xrotation Yrotation 
						End Site
						{
							OFFSET 0.0 0.0 0.0
						}
					}
				}
			}
		}
		JOINT UpperLeg_R
		{
			OFFSET -2.19251 6.46944 0.0
			CHANNELS 6 Xposition Yposition Zposition Zrotation Xrotation Yrotation 
			JOINT LowerLeg_R
			{
				OFFSET -39.0811 -0.00228153 -0.0401928
				CHANNELS 6 Xposition Yposition Zposition Zrotation Xrotation Yrotation 
				JOINT Foot_R
				{
					OFFSET -40.9854 0.0 0.0
					CHANNELS 6 Xposition Yposition Zposition Zrotation Xrotation Yrotation 
					JOINT Toes_R
					{
						OFFSET -11.7543 0.0 0.0
						CHANNELS 6 Xposition Yposition Zposition Zrotation Xrotation Yrotation 
						End Site
						{
							OFFSET 0.0 0.0 0.0
						}
					}
				}
			}
		}
	}
}
MOTION
Frames:	4
Frame Time:	0.0333333
0.000000 0.000000 0.000000 0.000000 0.000000 -0.000000 -2.625210 90.695700 0.647051 91.006000 -1.017860 11.666200 15.735700 0.000005 -0.000001 82.176000 80.715100 -79.586200 8.984550 -0.406207 -0.000000 10.699100 -2.443780 5.406380 16.377300 -0.000001 -0.000001 26.847600 -11.855000 4.637300 6.456720 -0.000001 -0.000000 15.894700 -14.193300 16.142800 12.994200 -0.242716 4.980390 -87.056500 -6.888300 -66.793800 5.348090 -0.000007 -0.000001 -65.098500 -51.494600 -94.713200 24.328600 0.000019 0.000005 14.911300 11.886300 -52.278700 22.291600 -0.000001 0.000005 14.448000 5.291710 0.303446 12.994500 -0.242716 -4.980390 88.243000 11.078000 -80.929500 -5.348130 -0.000001 -0.000004 -57.906400 30.968200 -11.844000 -24.328900 0.000322 -0.000009 1.426870 4.215130 -18.733700 -22.291500 -0.000108 -0.000004 11.640700 5.390740 -2.638800 -2.192480 -6.469440 -0.000000 -173.609000 -13.331600 2.649190 39.081100 -0.000007 -0.000012 -0.206699 0.363927 29.595600 40.985400 -0.000006 -0.000013 -0.683863 8.348630 -69.893000 11.754300 -0.000000 0.000003 -0.000155 -0.001491 -16.634200 -2.192510 6.469440 -0.000001 172.265000 22.849500 -175.835000 -39.081100 -0.002282 -0.040193 -0.217605 0.373400 30.609100 -40.985400 0.000008 0.000006 5.309500 14.602600 -72.844300 -11.754300 -0.000006 -0.000006 -0.001507 -0.022359 -17.482300
0.000000 0.000000 0.000000 0.000000 0.000000 -0.000000 -2.613680 90.699700 0.603210 91.034300 -1.098460 11.626800 15.735700 0.000005 -0.000001 82.174300 80.672500 -79.555000 8.984550 -0.406207 -0.000000 10.784400 -2.452880 5.467960 16.377300 -0.000001 -0.000001 26.965200 -11.773600 4.437680 6.456720 -0.000001 -0.000000 15.976900 -14.002900 16.027900 12.994200 -0.242716 4.980390 -87.059900 -6.891880 -66.828200 5.348090 -0.000007 -0.000001 -65.465900 -51.442800 -94.914900 24.328600 0.000019 0.000005 14.860200 11.992600 -51.935300 22.291600 -0.000001 0.000005 14.532200 5.288790 0.384628 12.994500 -0.242716 -4.980390 88.227100 11.096000 -80.863300 -5.348130 -0.000001 -0.000004 -57.786100 30.899700 -11.865800 -24.328900 0.000322 -0.000009 1.483780 4.389960 -18.708200 -22.291500 -0.000108 -0.000004 11.723200 5.392350 -2.690430 -2.192480 -6.469440 -0.000000 -173.646000 -13.420600 2.595310 39.081100 -0.000007 -0.000012 -0.205565 0.362125 29.582300 40.985400 -0.000006 -0.000013 -0.681445 8.319920 -69.859400 11.754300 -0.000000 0.000003 -0.000146 -0.001417 -16.631500 -2.192510 6.469440 -0.000001 172.253000 22.843500 -175.939000 -39.081100 -0.002282 -0.040193 -0.219615 0.376318 30.641100 -40.985400 0.000008 0.000006 5.330920 14.676900 -72.825300 -11.754300 -0.000006 -0.000006 -0.001683 -0.024675 -17.576400
0.000000 0.000000 0.000000 0.000000 0.000000 -0.000000 -2.617740 90.709200 0.559580 91.004200 -1.161170 11.585100 15.735700 0.000005 -0.000001 82.119300 80.642500 -79.462900 8.984550 -0.406207 -0.000000 10.843100 -2.476150 5.545710 16.377300 -0.000001 -0.000001 26.995200 -11.728100 4.317740 6.456720 -0.000001 -0.000000 16.091800 -13.862500 15.872500 12.994200 -0.242716 4.980390 -87.065100 -6.893900 -66.871600 5.348090 -0.000007 -0.000001 -65.860600 -51.380500 -95.209200 24.328600 0.000019 0.000005 14.868100 12.141100 -51.613200 22.291600 -0.000001 0.000005 14.429700 5.289560 0.363035 12.994500 -0.242716 -4.980390 88.228300 11.066700 -80.846000 -5.348130 -0.000001 -0.000004 -57.697300 30.902700 -11.867500 -24.328900 0.000322 -0.000009 1.456880 4.308220 -18.716400 -22.291500 -0.000108 -0.000004 11.711100 5.392870 -2.707090 -2.192480 -6.469440 -0.000000 -173.614000 -13.484600 2.539160 39.081100 -0.000007 -0.000012 -0.205238 0.361754 29.568400 40.985400 -0.000006 -0.000013 -0.667534 8.367240 -69.827900 11.754300 -0.000000 0.000003 -0.000163 -0.001555 -16.636600 -2.192510 6.469440 -0.000001 172.323000 22.851400 -176.013000 -39.081100 -0.002282 -0.040193 -0.215881 0.370510 30.607500 -40.985400 0.000008 0.000006 5.350880 14.719800 -72.774400 -11.754300 -0.000006 -0.000006 -0.001565 -0.023128 -17.513500
0.000000 0.000000 0.000000 0.000000 0.000000 -0.000000 -2.611890 90.713500 0.519768 91.026900 -1.220890 11.540500 15.735700 0.000005 -0.000001 81.978800 80.625900 -79.315200 8.984550 -0.406207 -0.000000 10.871300 -2.524920 5.565540 16.377300 -0.000001 -0.000001 27.126400 -11.671700 4.242850 6.456720 -0.000001 -0.000000 16.057000 -13.789900 15.717000 12.994200 -0.242716 4.980390 -87.066700 -6.909730 -66.929900 5.348090 -0.000007 -0.000001 -66.116100 -51.334700 -95.368700 24.328600 0.000019 0.000005 14.870200 12.233800 -51.408000 22.291600 -0.000001 0.000005 14.519300 5.287350 0.424295 12.994500 -0.242716 -4.980390 88.236000 11.049200 -80.870800 -5.348130 -0.000001 -0.000004 -57.604200 30.885800 -11.918600 -24.328900 0.000322 -0.000009 1.461110 4.335160 -18.658600 -22.291500 -0.000108 -0.000004 11.734700 5.391150 -2.651900 -2.192480 -6.469440 -0.000000 -173.632000 -13.569100 2.488050 39.081100 -0.000007 -0.000012 -0.206216 0.363778 29.548000 40.985400 -0.000006 -0.000013 -0.668576 8.366680 -69.793600 11.754300 -0.000000 0.000003 -0.000160 -0.001536 -16.635800 -2.192510 6.469440 -0.000001 172.322000 22.846200 -176.108000 -39.081100 -0.002282 -0.040193 -0.218736 0.375045 30.627000 -40.985400 0.000008 0.000006 5.366990 14.770500 -72.755600 -11.754300 -0.000006 -0.000006 -0.001664 -0.024430 -17.566500
